PathFileType	4	(X/Y/Z)	C:/Users/opensim2020/Desktop/walking_exp_matlab/subject06_walking19_straight_03.trc	
DataRate	CameraRate	NumFrames	NumMarkers	Units	OrigDataRate	OrigDataStartFrame	OrigNumFrames	
100.00	100.00	8	49	mm	100.00	3580	358	
Frame#	Time	LFHD			RFHD			LBHD			RBHD			C7			T10			CLAV			STRN			RBAK			LSHO			LUPA			LELB			LFRM			LWRA			LWRB			LFIN			RSHO			RUPA			RELB			RFRM			RWRA			RWRB			RFIN			LASI			RASI			LPSI			RPSI			LTHI			LKNE			LTIB			LANK			LHEE			LTOE			RTHI			RKNE			RTIB			RANK			RHEE			RTOE			*39			*40			*41			*42			*43			*44			*45			*46			*47			*48			
		X1	Y1	Z1	X2	Y2	Z2	X3	Y3	Z3	X4	Y4	Z4	X5	Y5	Z5	X6	Y6	Z6	X7	Y7	Z7	X8	Y8	Z8	X9	Y9	Z9	X10	Y10	Z10	X11	Y11	Z11	X12	Y12	Z12	X13	Y13	Z13	X14	Y14	Z14	X15	Y15	Z15	X16	Y16	Z16	X17	Y17	Z17	X18	Y18	Z18	X19	Y19	Z19	X20	Y20	Z20	X21	Y21	Z21	X22	Y22	Z22	X23	Y23	Z23	X24	Y24	Z24	X25	Y25	Z25	X26	Y26	Z26	X27	Y27	Z27	X28	Y28	Z28	X29	Y29	Z29	X30	Y30	Z30	X31	Y31	Z31	X32	Y32	Z32	X33	Y33	Z33	X34	Y34	Z34	X35	Y35	Z35	X36	Y36	Z36	X37	Y37	Z37	X38	Y38	Z38	X39	Y39	Z39	X40	Y40	Z40	X41	Y41	Z41	X42	Y42	Z42	X43	Y43	Z43	X44	Y44	Z44	X45	Y45	Z45	X46	Y46	Z46	X47	Y47	Z47	X48	Y48	Z48	X49	Y49	Z49	

314	3.130	1377.87732	751.32312	1649.93945	1509.58887	758.01160	1643.62451	1384.77979	620.26843	1590.26672	1514.35474	627.60126	1588.49915	1444.07129	628.69403	1436.82788	1456.53406	592.36987	1109.43457	1445.74377	738.46863	1359.53186	1446.36499	776.33429	1182.68445	1529.92480	556.17596	1270.76208	1283.25208	683.34363	1387.22290	1214.34961	652.42792	1188.00586	1205.15747	629.95721	1078.11169	1185.04260	634.28552	927.09644	1227.54749	679.85608	806.61566	1190.79028	619.32245	808.57916	1191.69861	649.64069	722.56110	1605.85669	696.84772	1396.05457	1701.51855	665.84521	1199.55042	1715.76868	683.00250	1079.34216	1725.03613	726.48431	967.49945	1674.97327	814.91187	851.64502	1723.66296	770.79028	838.18591	1715.23657	826.35815	775.03595	1349.75684	769.45557	949.81824	1569.63879	759.50256	948.58392	1366.76880	611.67511	976.82977	1535.69836	610.10718	979.62952	1276.63550	747.45764	638.23328	1305.18677	794.02838	486.09833	1306.91809	834.65271	232.82210	1343.05530	894.15063	69.09280	1392.79443	864.58972	45.50477	1338.29053	1041.60388	74.52045	1607.15027	661.62213	618.61053	1585.25635	639.56006	493.52405	1581.61511	495.63989	264.06934	1540.44348	402.52884	100.54282	1500.59290	351.75607	89.21479	1525.53320	539.42249	38.26288	1439.93274	651.88458	1686.13513																											 
315	3.140	1376.72998	758.40533	1649.82544	1508.15881	764.49957	1643.30811	1383.27808	627.43195	1589.86560	1512.91333	634.59137	1588.06409	1442.45276	635.87079	1436.51001	1454.85291	600.47717	1108.84167	1444.54858	745.82843	1359.41370	1445.30981	784.02783	1182.58423	1527.95789	563.24091	1270.03711	1281.77002	691.20654	1386.85950	1213.00647	660.83649	1187.41675	1204.01587	637.72308	1077.62317	1184.17004	642.20673	926.54596	1227.22632	687.30005	806.09381	1190.16870	627.15778	807.99438	1191.21313	657.62939	722.06488	1604.50867	703.51178	1395.72095	1700.06213	672.38562	1199.10693	1714.50525	689.63843	1078.92786	1724.14697	733.22913	967.11835	1674.53296	821.70886	851.16211	1722.61658	777.08624	837.42340	1715.04553	833.04254	774.62610	1348.97815	778.13159	949.47559	1569.00842	767.42236	948.35052	1365.22278	620.26563	976.63568	1534.32336	618.04602	979.29486	1274.97852	756.31549	638.00031	1304.25134	799.76978	485.21817	1307.31848	838.76599	232.19408	1342.78772	897.07697	69.09742	1392.88513	867.09564	46.92570	1337.65491	1044.93799	69.36931	1606.65332	668.72278	618.28766	1584.91650	646.35675	493.31485	1581.28638	499.48260	265.60510	1540.33154	404.11694	103.27021	1500.39941	353.44778	92.80926	1525.86011	539.96619	38.47504	1438.59448	658.77136	1685.79736																											 
316	3.150	1375.57678	765.51312	1650.20007	1507.28027	771.56323	1643.69800	1381.71143	634.70667	1589.76440	1511.37402	641.45056	1587.91235	1440.69312	643.08289	1436.70264	1453.40527	608.61096	1108.50635	1443.27783	753.11017	1359.61633	1444.30542	791.53961	1182.84338	1525.81885	570.35803	1269.57068	1280.24072	699.06165	1386.61914	1211.56848	668.97162	1187.03455	1202.73230	646.01453	1077.34106	1183.21399	650.30365	926.10614	1226.61658	695.30420	805.67706	1189.43225	635.22443	807.51520	1190.65869	666.00110	721.61804	1603.26575	710.21368	1395.61597	1698.56470	678.95355	1198.77356	1713.07129	696.25299	1078.53491	1723.09851	739.82196	966.76813	1674.12195	828.44769	850.67163	1721.99280	783.49884	837.07513	1714.69653	839.34509	774.18494	1348.15710	786.85126	949.57111	1568.47534	775.48071	948.25629	1363.86438	628.81659	977.03967	1533.02637	626.15106	979.19153	1273.76282	764.75458	638.71613	1302.46008	804.52026	485.03128	1305.83569	843.54095	232.66904	1341.80884	900.45825	68.92535	1391.81335	869.58014	47.96129	1337.52356	1048.18640	66.15964	1605.94214	676.10406	617.99658	1584.07092	653.44574	492.88385	1580.81140	503.72647	267.34302	1540.36768	406.06702	106.38741	1500.43408	355.38239	96.74323	1525.84070	540.32532	38.52908	1437.20435	665.55756	1685.79004																											 
317	3.160	1374.37854	772.61853	1650.85132	1505.76050	777.92566	1644.19751	1380.07788	641.95929	1590.04175	1509.74414	648.44659	1588.14978	1438.97180	650.48694	1437.16345	1452.17615	616.59308	1108.65454	1442.06702	760.40796	1360.13147	1443.31409	799.17395	1183.37976	1523.63660	577.56836	1269.53821	1278.67883	707.05859	1386.54492	1209.95605	677.26910	1186.85583	1201.36523	654.03998	1076.87451	1182.29004	658.49414	925.74310	1225.67773	704.03638	805.55646	1188.68286	643.52332	807.17572	1190.09912	674.32025	721.45508	1602.06030	716.95404	1395.78296	1696.98364	685.59790	1198.69238	1711.83472	702.96393	1078.55994	1721.95020	746.41510	966.54407	1673.66443	835.06683	850.28882	1721.07642	789.64899	836.69116	1714.47229	845.51196	773.92407	1347.39001	795.69855	950.07965	1567.69397	783.47742	948.32196	1362.83826	637.22815	978.02881	1532.06531	634.41876	979.14557	1272.50415	772.94775	640.11243	1300.56934	809.72595	485.42920	1303.91589	848.12732	233.14699	1340.97168	902.93164	68.73618	1390.63452	871.32990	48.90275	1337.15686	1050.55408	62.89352	1605.10193	683.89752	617.85553	1583.54590	661.25275	492.79834	1580.39807	508.49411	269.36108	1540.27747	408.31119	109.83802	1500.38159	357.55695	101.29310	1525.69092	540.66644	38.52681	1435.70825	672.39502	1686.11584																											 
318	3.170	1373.11584	779.84784	1651.62231	1504.78418	785.07751	1645.02441	1378.42151	649.17963	1590.52722	1508.13489	655.30066	1588.60583	1437.34058	657.86554	1437.81750	1451.03186	624.43866	1109.17700	1440.89087	767.68732	1360.85840	1442.25024	806.90619	1184.24585	1521.88550	584.64972	1270.02698	1277.18640	715.08093	1386.79089	1208.54749	685.82269	1186.88037	1200.09937	662.87732	1076.78601	1181.16931	667.35992	925.63336	1225.28052	712.12628	805.50726	1187.67615	652.23999	807.12787	1189.41968	682.94281	721.38306	1600.83508	723.77173	1396.32764	1695.24365	692.32837	1198.97461	1710.16370	710.00940	1078.79773	1720.60620	752.83075	966.58313	1673.34216	841.45142	850.03442	1720.38184	795.66248	836.68475	1714.31885	851.44958	773.72510	1346.60913	804.41364	951.24017	1566.62451	791.40344	948.55414	1362.10901	645.53986	979.14050	1531.27429	642.64026	979.24133	1271.64050	780.42334	641.74994	1298.77246	815.82227	486.16251	1302.06543	852.18243	233.39160	1340.21179	904.08472	68.42960	1390.13123	872.13727	49.55925	1336.84302	1051.77954	59.27538	1604.11633	692.21332	617.86499	1582.85254	669.60895	492.77213	1579.95288	513.74011	271.56201	1540.23083	410.92776	113.72269	1499.98987	360.05301	106.20555	1525.37488	540.97479	38.52078	1434.15051	679.34705	1686.67236																											 
319	3.180	1371.80469	787.07251	1652.42249	1503.47083	791.90997	1645.88440	1376.68604	656.50079	1591.18030	1506.45728	662.28339	1589.36377	1435.63452	664.93860	1438.60364	1450.05371	632.42603	1109.81140	1439.70911	775.03058	1361.78040	1441.21790	814.59198	1185.27112	1520.15381	592.03992	1270.53931	1275.81946	723.16315	1387.28430	1207.21985	694.50818	1187.17859	1198.54858	671.67657	1077.09167	1179.97400	676.41034	925.82446	1224.50134	720.99463	805.85657	1186.56738	661.20642	807.34296	1188.84839	691.62152	721.64893	1599.54675	730.60193	1397.18567	1693.40857	699.12225	1199.64124	1708.62585	717.41132	1079.58716	1719.40002	759.58624	967.06934	1672.88354	847.72437	849.93988	1719.43481	801.39984	836.71936	1714.10938	856.99048	773.75287	1345.67126	812.94147	952.81836	1565.53345	799.56519	949.11926	1361.46423	653.73920	980.50897	1530.51160	650.79120	979.64349	1269.56262	788.78168	643.68457	1296.92383	822.54291	487.09613	1300.27466	856.10211	233.59810	1339.58423	905.12604	67.94506	1389.41895	872.47498	50.08700	1336.50574	1052.38110	56.13260	1603.26721	700.97601	617.99420	1582.18201	678.65308	492.91745	1579.39441	519.43127	273.99252	1540.07776	414.02771	117.89909	1499.72107	363.20129	111.57054	1525.31580	541.61029	38.69428	1432.49792	686.37512	1687.42310																											 
320	3.190	1370.39832	794.30908	1653.37207	1502.06909	798.77167	1646.93115	1374.97998	663.68677	1591.96228	1504.76501	669.08893	1590.25244	1434.05273	672.18640	1439.32776	1449.15466	640.39392	1110.69128	1438.59961	782.45563	1362.94165	1440.15002	822.39539	1186.44226	1518.52380	599.47754	1271.28406	1274.51794	731.08612	1388.06604	1205.94849	703.33649	1187.73059	1197.43542	681.11377	1077.54663	1178.88708	685.76935	926.32495	1223.73267	730.03662	806.51697	1185.34998	670.44617	807.85486	1187.91931	701.11053	722.24310	1598.23718	737.42450	1398.37195	1691.63049	706.08771	1200.63770	1706.79712	724.69159	1080.56860	1717.95056	766.07190	967.73914	1672.49902	853.80664	850.04248	1718.70532	807.05579	837.16931	1713.93811	862.26697	773.82959	1344.60522	821.22388	954.53400	1564.23474	807.80505	949.92236	1360.77710	661.87036	981.89264	1529.70557	659.12866	980.11426	1267.65723	797.28577	645.51740	1295.11121	829.56897	488.11224	1298.79224	859.90948	234.10120	1338.94421	906.24194	67.74725	1389.34802	872.71667	51.28245	1335.95764	1053.21631	53.83812	1602.40674	709.96881	618.20605	1581.40833	688.28857	493.07108	1578.83069	525.71429	276.58011	1539.80164	417.62491	122.31426	1499.42834	366.93011	117.29999	1525.32544	542.45349	38.91342	1430.80225	693.36212	1688.28760																											 
321	3.200	1368.97668	801.45673	1654.36841	1500.32825	805.27783	1648.01685	1373.30627	670.92511	1592.95508	1503.10376	676.08881	1591.44116	1432.48047	679.33954	1440.16895	1448.26929	648.10004	1111.69458	1437.46570	789.89734	1364.16125	1439.04675	830.23004	1187.80493	1517.07483	607.00848	1272.15393	1273.22705	738.79816	1389.12756	1204.90173	712.22980	1188.52380	1195.99097	690.11133	1078.40649	1177.57678	695.54541	927.08899	1222.74036	739.57684	807.55872	1183.79382	680.54163	808.66705	1186.92419	710.75702	722.97192	1596.92029	744.29462	1399.79443	1689.92090	713.11853	1201.87354	1704.91577	731.88831	1081.80408	1716.66235	772.71283	968.78485	1672.02795	859.75995	850.25897	1717.90222	812.60193	837.83044	1713.67029	867.41254	774.15619	1343.27734	829.36957	956.30499	1562.80774	816.05859	950.91339	1360.08142	669.75940	983.42096	1528.75171	667.47400	980.85333	1267.93982	803.42633	646.49982	1293.26758	836.50183	489.19693	1297.44153	864.04834	234.86594	1338.37109	907.51788	67.75666	1387.98535	874.17072	51.26023	1335.81543	1054.38135	52.28255	1601.73926	719.32202	618.55652	1580.71692	698.40991	493.26950	1578.24426	532.51337	279.44388	1539.59436	421.68430	127.18246	1498.99548	371.14349	123.42416	1525.34180	543.45300	39.26529	1429.08374	700.42371	1689.35950																											 
